<?xml version="1.0" standalone="no"?>
<!DOCTYPE svg PUBLIC "-//W3C//DTD SVG 20010904//EN"
 "http://www.w3.org/TR/2001/REC-SVG-20010904/DTD/svg10.dtd">
<svg version="1.0" xmlns="http://www.w3.org/2000/svg"
 width="200.000000pt" height="200.000000pt" viewBox="0 0 200.000000 200.000000"
 preserveAspectRatio="xMidYMid meet">

<g transform="translate(0.000000,200.000000) scale(0.100000,-0.100000)"
fill="#000000" stroke="none">
<path d="M413 1411 c-60 -28 -142 -138 -183 -247 -8 -21 -7 -24 13 -24 17 0
28 14 51 65 50 113 144 189 139 113 -1 -15 -31 -109 -67 -210 -36 -101 -66
-187 -66 -191 0 -4 33 -7 73 -7 l72 0 63 183 c69 200 102 267 133 267 34 0 23
-61 -45 -243 -35 -95 -67 -180 -71 -189 -6 -16 0 -18 63 -18 l70 0 57 148
c108 277 117 297 145 297 40 0 36 -32 -20 -182 -62 -164 -72 -226 -41 -265 39
-49 134 -50 191 -2 27 23 130 177 130 195 0 4 -7 9 -15 12 -10 4 -24 -12 -46
-54 -33 -62 -102 -133 -122 -126 -25 8 -17 52 39 213 64 189 71 236 35 265
-13 10 -33 19 -45 19 -35 0 -108 -28 -141 -54 l-30 -24 -10 31 c-19 59 -94 60
-179 2 -44 -30 -46 -30 -46 -6 0 26 -37 51 -75 51 -16 0 -49 -9 -72 -19z"/>
<path d="M1270 1409 c-44 -18 -90 -59 -125 -112 -19 -28 -35 -55 -35 -59 0 -5
11 -8 25 -8 17 0 29 9 39 28 21 40 72 92 90 92 10 0 16 -9 16 -25 0 -31 -200
-593 -224 -630 -20 -31 -71 -55 -116 -55 -27 0 -30 -3 -30 -30 l0 -30 220 0
220 0 0 29 c0 26 -4 29 -41 34 -67 9 -68 14 -24 143 22 63 42 119 45 124 3 5
28 -2 55 -15 94 -48 200 -22 283 69 118 129 135 311 37 412 -39 42 -45 44 -97
44 -61 0 -106 -13 -157 -45 l-35 -21 -25 28 c-29 32 -81 44 -121 27z m321 -71
c7 -14 9 -45 6 -87 -12 -129 -77 -265 -146 -305 -33 -19 -34 -19 -48 0 -11 14
-14 39 -10 99 10 180 149 385 198 293z"/>
</g>
</svg>
